{
  "accessors": [
    {
      "bufferView": 2,
      "componentType": 5126,
      "count": 4166,
      "max": [
        0.05000000074505806,
        0.060010001063346863,
        0.004999999888241291
      ],
      "min": [
        -0.05000000074505806,
        9.9999997473787516e-06,
        0
      ],
      "type": "VEC3"
    },
    {
      "bufferView": 2,
      "byteOffset": 49992,
      "componentType": 5126,
      "count": 4166,
      "max": [
        0.99961525201797485,
        1,
        1
      ],
      "min": [
        -0.99961608648300171,
        -1,
        -1
      ],
      "type": "VEC3"
    },
    {
      "bufferView": 3,
      "componentType": 5126,
      "count": 4166,
      "max": [
        1,
        0.944691002368927,
        0.99984341859817505,
        1
      ],
      "min": [
        -0.67258942127227783,
        -0.94767612218856812,
        -0.99999701976776123,
        1
      ],
      "type": "VEC4"
    },
    {
      "bufferView": 1,
      "componentType": 5126,
      "count": 4166,
      "max": [
        0.81462001800537109,
        0.98817998170852661
      ],
      "min": [
        0.011819999665021896,
        0.011819999665021896
      ],
      "type": "VEC2"
    },
    {
      "bufferView": 0,
      "componentType": 5125,
      "count": 22824,
      "max": [
        4165
      ],
      "min": [
        0
      ],
      "type": "SCALAR"
    }
  ],
  "asset": {
    "extras": {
      "author": "FrancescoMilanese (https://sketchfab.com/FrancescoMilanese)",
      "license": "SKETCHFAB Standard (https://sketchfab.com/licenses)",
      "source": "https://sketchfab.com/models/944b590d17c84f2da2c84a6f6ffa3a7c",
      "title": "Brass Knuckles"
    },
    "generator": "Sketchfab-3.19.5",
    "version": "2.0"
  },
  "bufferViews": [
    {
      "buffer": 0,
      "byteLength": 91296,
      "byteOffset": 0,
      "name": "floatBufferViews",
      "target": 34963
    },
    {
      "buffer": 0,
      "byteLength": 33328,
      "byteOffset": 91296,
      "byteStride": 8,
      "name": "floatBufferViews",
      "target": 34962
    },
    {
      "buffer": 0,
      "byteLength": 99984,
      "byteOffset": 124624,
      "byteStride": 12,
      "name": "floatBufferViews",
      "target": 34962
    },
    {
      "buffer": 0,
      "byteLength": 66656,
      "byteOffset": 224608,
      "byteStride": 16,
      "name": "floatBufferViews",
      "target": 34962
    }
  ],
  "buffers": [
    {
      "byteLength": 291264,
      "uri": "scene.bin"
    }
  ],
  "images": [
    {
      "uri": "textures/BRASS-KNUCKLES_metallicRoughness.png"
    },
    {
      "uri": "textures/BRASS-KNUCKLES_normal.png"
    },
    {
      "uri": "textures/BRASS-KNUCKLES_baseColor.jpeg"
    }
  ],
  "materials": [
    {
      "doubleSided": true,
      "emissiveFactor": [
        0,
        0,
        0
      ],
      "name": "BRASS-KNUCKLES",
      "normalTexture": {
        "index": 1,
        "scale": 1,
        "texCoord": 0
      },
      "occlusionTexture": {
        "index": 0,
        "strength": 1,
        "texCoord": 0
      },
      "pbrMetallicRoughness": {
        "baseColorFactor": [
          1,
          1,
          1,
          1
        ],
        "baseColorTexture": {
          "index": 2,
          "texCoord": 0
        },
        "metallicFactor": 1,
        "metallicRoughnessTexture": {
          "index": 0,
          "texCoord": 0
        },
        "roughnessFactor": 1
      }
    }
  ],
  "meshes": [
    {
      "name": "BRASS-KNUCKLES_0",
      "primitives": [
        {
          "attributes": {
            "NORMAL": 1,
            "POSITION": 0,
            "TANGENT": 2,
            "TEXCOORD_0": 3
          },
          "indices": 4,
          "material": 0,
          "mode": 4
        }
      ]
    }
  ],
  "nodes": [
    {
      "children": [
        1
      ],
      "name": "RootNode (gltf orientation matrix)",
      "rotation": [
        -0.70710678118654746,
        -0,
        -0,
        0.70710678118654757
      ]
    },
    {
      "children": [
        2
      ],
      "name": "RootNode (model correction matrix)"
    },
    {
      "children": [
        3
      ],
      "name": "Root"
    },
    {
      "children": [
        4
      ],
      "name": "BRASS-KNUCKLES"
    },
    {
      "mesh": 0,
      "name": "BRASS-KNUCKLES_0"
    }
  ],
  "samplers": [
    {
      "magFilter": 9729,
      "minFilter": 9987,
      "wrapS": 10497,
      "wrapT": 10497
    }
  ],
  "scene": 0,
  "scenes": [
    {
      "name": "OSG_Scene",
      "nodes": [
        0
      ]
    }
  ],
  "textures": [
    {
      "sampler": 0,
      "source": 0
    },
    {
      "sampler": 0,
      "source": 1
    },
    {
      "sampler": 0,
      "source": 2
    }
  ]
}

