{
  "accessors": [
    {
      "bufferView": 2,
      "componentType": 5126,
      "count": 7323,
      "max": [
        6.522149562835693,
        1.4860512018203735,
        2.054173469543457
      ],
      "min": [
        -1.7660199403762817,
        -0.3698294758796692,
        -2.054173469543457
      ],
      "type": "VEC3"
    },
    {
      "bufferView": 2,
      "byteOffset": 87876,
      "componentType": 5126,
      "count": 7323,
      "max": [
        1.0,
        1.0,
        1.0
      ],
      "min": [
        -1.0,
        -1.0,
        -1.0
      ],
      "type": "VEC3"
    },
    {
      "bufferView": 1,
      "componentType": 5126,
      "count": 7323,
      "max": [
        0.0,
        0.0
      ],
      "min": [
        0.0,
        0.0
      ],
      "type": "VEC2"
    },
    {
      "bufferView": 0,
      "componentType": 5125,
      "count": 11967,
      "type": "SCALAR"
    },
    {
      "bufferView": 2,
      "byteOffset": 175752,
      "componentType": 5126,
      "count": 13718,
      "max": [
        6.513323783874512,
        0.6000388264656067,
        2.0248055458068848
      ],
      "min": [
        -0.32460540533065796,
        -0.534898042678833,
        -2.0101566314697266
      ],
      "type": "VEC3"
    },
    {
      "bufferView": 2,
      "byteOffset": 340368,
      "componentType": 5126,
      "count": 13718,
      "max": [
        0.9997672438621521,
        0.9999480247497559,
        1.0
      ],
      "min": [
        -0.9993258118629456,
        -0.9997265934944153,
        -1.0
      ],
      "type": "VEC3"
    },
    {
      "bufferView": 1,
      "byteOffset": 58584,
      "componentType": 5126,
      "count": 13718,
      "max": [
        1.0,
        0.6417386531829834
      ],
      "min": [
        0.0,
        0.0
      ],
      "type": "VEC2"
    },
    {
      "bufferView": 0,
      "byteOffset": 47868,
      "componentType": 5125,
      "count": 21558,
      "type": "SCALAR"
    },
    {
      "bufferView": 2,
      "byteOffset": 504984,
      "componentType": 5126,
      "count": 64,
      "max": [
        6.490371227264404,
        0.9136320352554321,
        1.6444913148880005
      ],
      "min": [
        5.930253028869629,
        0.6207676529884338,
        -1.6444913148880005
      ],
      "type": "VEC3"
    },
    {
      "bufferView": 2,
      "byteOffset": 505752,
      "componentType": 5126,
      "count": 64,
      "max": [
        1.0,
        0.007206853479146957,
        0.9631955623626709
      ],
      "min": [
        0.2687903940677643,
        0.0,
        -0.9631954431533813
      ],
      "type": "VEC3"
    },
    {
      "bufferView": 1,
      "byteOffset": 168328,
      "componentType": 5126,
      "count": 64,
      "max": [
        0.0,
        0.0
      ],
      "min": [
        0.0,
        0.0
      ],
      "type": "VEC2"
    },
    {
      "bufferView": 0,
      "byteOffset": 134100,
      "componentType": 5125,
      "count": 108,
      "type": "SCALAR"
    },
    {
      "bufferView": 2,
      "byteOffset": 506520,
      "componentType": 5126,
      "count": 218,
      "max": [
        5.442399024963379,
        0.8778365850448608,
        1.7589818239212036
      ],
      "min": [
        -1.4653111696243286,
        -0.3677045702934265,
        -1.7589818239212036
      ],
      "type": "VEC3"
    },
    {
      "bufferView": 2,
      "byteOffset": 509136,
      "componentType": 5126,
      "count": 218,
      "max": [
        0.5348351001739502,
        0.984876275062561,
        0.9999910593032837
      ],
      "min": [
        -0.6671603918075562,
        -0.8018956184387207,
        -0.9999910593032837
      ],
      "type": "VEC3"
    },
    {
      "bufferView": 1,
      "byteOffset": 168840,
      "componentType": 5126,
      "count": 218,
      "max": [
        0.0,
        0.0
      ],
      "min": [
        0.0,
        0.0
      ],
      "type": "VEC2"
    },
    {
      "bufferView": 0,
      "byteOffset": 134532,
      "componentType": 5125,
      "count": 330,
      "type": "SCALAR"
    },
    {
      "bufferView": 2,
      "byteOffset": 511752,
      "componentType": 5126,
      "count": 90,
      "max": [
        4.156429767608643,
        1.357803463935852,
        1.3499101400375366
      ],
      "min": [
        1.0971640348434448,
        0.8313929438591003,
        -1.3499101400375366
      ],
      "type": "VEC3"
    },
    {
      "bufferView": 2,
      "byteOffset": 512832,
      "componentType": 5126,
      "count": 90,
      "max": [
        0.9503368139266968,
        0.9290748834609985,
        0.9080607295036316
      ],
      "min": [
        -0.40203776955604553,
        0.31091079115867615,
        -0.9080607295036316
      ],
      "type": "VEC3"
    },
    {
      "bufferView": 1,
      "byteOffset": 170584,
      "componentType": 5126,
      "count": 90,
      "max": [
        0.0,
        0.0
      ],
      "min": [
        0.0,
        0.0
      ],
      "type": "VEC2"
    },
    {
      "bufferView": 0,
      "byteOffset": 135852,
      "componentType": 5125,
      "count": 114,
      "type": "SCALAR"
    },
    {
      "bufferView": 2,
      "byteOffset": 513912,
      "componentType": 5126,
      "count": 16,
      "max": [
        -1.4091603755950928,
        0.3812975287437439,
        1.1973870992660522
      ],
      "min": [
        -1.4624238014221191,
        0.3245545029640198,
        -1.1973870992660522
      ],
      "type": "VEC3"
    },
    {
      "bufferView": 2,
      "byteOffset": 514104,
      "componentType": 5126,
      "count": 16,
      "max": [
        -0.9614419341087341,
        0.22130955755710602,
        0.16325291991233826
      ],
      "min": [
        -0.9614425897598267,
        0.2213074415922165,
        -0.16325291991233826
      ],
      "type": "VEC3"
    },
    {
      "bufferView": 1,
      "byteOffset": 171304,
      "componentType": 5126,
      "count": 16,
      "max": [
        0.0,
        0.0
      ],
      "min": [
        0.0,
        0.0
      ],
      "type": "VEC2"
    },
    {
      "bufferView": 0,
      "byteOffset": 136308,
      "componentType": 5125,
      "count": 24,
      "type": "SCALAR"
    },
    {
      "bufferView": 2,
      "byteOffset": 514296,
      "componentType": 5126,
      "count": 3922,
      "max": [
        5.539207935333252,
        0.6274173259735107,
        2.1671411991119385
      ],
      "min": [
        -0.5141773819923401,
        -0.7244701385498047,
        -2.1524925231933594
      ],
      "type": "VEC3"
    },
    {
      "bufferView": 2,
      "byteOffset": 561360,
      "componentType": 5126,
      "count": 3922,
      "max": [
        0.9951860308647156,
        0.9951848983764648,
        1.0
      ],
      "min": [
        -0.9951860308647156,
        -0.9951849579811096,
        -1.0
      ],
      "type": "VEC3"
    },
    {
      "bufferView": 1,
      "byteOffset": 171432,
      "componentType": 5126,
      "count": 3922,
      "max": [
        1.0,
        1.0
      ],
      "min": [
        0.0,
        0.01000000536441803
      ],
      "type": "VEC2"
    },
    {
      "bufferView": 0,
      "byteOffset": 136404,
      "componentType": 5125,
      "count": 6120,
      "type": "SCALAR"
    },
    {
      "bufferView": 2,
      "byteOffset": 608424,
      "componentType": 5126,
      "count": 487,
      "max": [
        40.07859420776367,
        14.114425659179688,
        0.2840132713317871
      ],
      "min": [
        -35.04170608520508,
        -5.540189743041992,
        0.2840120792388916
      ],
      "type": "VEC3"
    },
    {
      "bufferView": 2,
      "byteOffset": 614268,
      "componentType": 5126,
      "count": 487,
      "max": [
        8.127367578936173e-08,
        3.574616513901674e-08,
        1.0
      ],
      "min": [
        -7.911106791880229e-08,
        -9.083812813059922e-08,
        1.0
      ],
      "type": "VEC3"
    },
    {
      "bufferView": 0,
      "byteOffset": 160884,
      "componentType": 5125,
      "count": 819,
      "type": "SCALAR"
    },
    {
      "bufferView": 2,
      "byteOffset": 620112,
      "componentType": 5126,
      "count": 487,
      "max": [
        40.27435302734375,
        13.696660041809082,
        1.0706165767260245e-06
      ],
      "min": [
        -34.845947265625,
        -5.957955360412598,
        -2.0675062728514604e-07
      ],
      "type": "VEC3"
    },
    {
      "bufferView": 2,
      "byteOffset": 625956,
      "componentType": 5126,
      "count": 487,
      "max": [
        3.392093361753723e-08,
        1.5813107268058957e-08,
        1.0
      ],
      "min": [
        -8.75902106400872e-09,
        -4.480397564066152e-08,
        1.0
      ],
      "type": "VEC3"
    },
    {
      "bufferView": 0,
      "byteOffset": 164160,
      "componentType": 5125,
      "count": 819,
      "type": "SCALAR"
    }
  ],
  "asset": {
    "extras": {
      "author": "DFS studio (https://sketchfab.com/DFS_studio)",
      "license": "CC-BY-4.0 (http://creativecommons.org/licenses/by/4.0/)",
      "source": "https://sketchfab.com/3d-models/cyberpunk-2077-car-lowpoly-quadra-v-53100ea6422e4a3b8899e5d74f216a6f",
      "title": "Cyberpunk 2077 Car lowpoly (Quadra V)"
    },
    "generator": "Sketchfab-12.66.0",
    "version": "2.0"
  },
  "bufferViews": [
    {
      "buffer": 0,
      "byteLength": 167436,
      "name": "floatBufferViews",
      "target": 34963
    },
    {
      "buffer": 0,
      "byteLength": 202808,
      "byteOffset": 167436,
      "byteStride": 8,
      "name": "floatBufferViews",
      "target": 34962
    },
    {
      "buffer": 0,
      "byteLength": 631800,
      "byteOffset": 370244,
      "byteStride": 12,
      "name": "floatBufferViews",
      "target": 34962
    }
  ],
  "buffers": [
    {
      "byteLength": 1002044,
      "uri": "scene.bin"
    }
  ],
  "materials": [
    {
      "doubleSided": true,
      "name": "Material.002",
      "pbrMetallicRoughness": {
        "baseColorFactor": [
          0.1542627969,
          0.1471016584,
          0.1471016584,
          1.0
        ],
        "roughnessFactor": 0.5235208869
      }
    },
    {
      "doubleSided": true,
      "name": "Material.004",
      "pbrMetallicRoughness": {
        "baseColorFactor": [
          0.1611161057,
          0.1596001773,
          0.1596001773,
          1.0
        ],
        "roughnessFactor": 0.6
      }
    },
    {
      "doubleSided": true,
      "emissiveFactor": [
        1.0,
        0.4470594637031459,
        0.4161734791129072
      ],
      "name": "Material.003",
      "pbrMetallicRoughness": {
        "baseColorFactor": [
          1.0,
          0.0,
          0.0,
          1.0
        ],
        "roughnessFactor": 0.6
      }
    },
    {
      "doubleSided": true,
      "name": "Material.009",
      "pbrMetallicRoughness": {
        "baseColorFactor": [
          0.4594144285,
          0.4472900674,
          0.2299958846,
          1.0
        ],
        "roughnessFactor": 0.879629612
      }
    },
    {
      "doubleSided": true,
      "name": "Material.005",
      "pbrMetallicRoughness": {
        "baseColorFactor": [
          0.051734452081192386,
          0.05949308924164468,
          0.07910516979751456,
          1.0
        ],
        "metallicFactor": 0.0,
        "roughnessFactor": 0.0
      }
    },
    {
      "doubleSided": true,
      "emissiveFactor": [
        1.0,
        1.0,
        1.0
      ],
      "name": "light"
    },
    {
      "doubleSided": true,
      "name": "rubber",
      "pbrMetallicRoughness": {
        "baseColorFactor": [
          0.0396796,
          0.0396796,
          0.0396796,
          1.0
        ],
        "metallicFactor": 0.0,
        "roughnessFactor": 0.5
      }
    },
    {
      "doubleSided": true,
      "emissiveFactor": [
        0.7086768657933238,
        0.5998548397055404,
        0.0
      ],
      "name": "Material.001",
      "pbrMetallicRoughness": {
        "roughnessFactor": 0.1590147198
      }
    },
    {
      "doubleSided": true,
      "name": "Material.016",
      "pbrMetallicRoughness": {
        "baseColorFactor": [
          0.0010183331,
          0.2630177209,
          0.979986381,
          1.0
        ],
        "metallicFactor": 0.0
      }
    }
  ],
  "meshes": [
    {
      "name": "Plane_Material.002_0",
      "primitives": [
        {
          "attributes": {
            "NORMAL": 1,
            "POSITION": 0,
            "TEXCOORD_0": 2
          },
          "indices": 3,
          "material": 0,
          "mode": 4
        }
      ]
    },
    {
      "name": "Plane_Material.004_0",
      "primitives": [
        {
          "attributes": {
            "NORMAL": 5,
            "POSITION": 4,
            "TEXCOORD_0": 6
          },
          "indices": 7,
          "material": 1,
          "mode": 4
        }
      ]
    },
    {
      "name": "Plane_Material.003_0",
      "primitives": [
        {
          "attributes": {
            "NORMAL": 9,
            "POSITION": 8,
            "TEXCOORD_0": 10
          },
          "indices": 11,
          "material": 2,
          "mode": 4
        }
      ]
    },
    {
      "name": "Plane_Material.009_0",
      "primitives": [
        {
          "attributes": {
            "NORMAL": 13,
            "POSITION": 12,
            "TEXCOORD_0": 14
          },
          "indices": 15,
          "material": 3,
          "mode": 4
        }
      ]
    },
    {
      "name": "Plane_Material.005_0",
      "primitives": [
        {
          "attributes": {
            "NORMAL": 17,
            "POSITION": 16,
            "TEXCOORD_0": 18
          },
          "indices": 19,
          "material": 4,
          "mode": 4
        }
      ]
    },
    {
      "name": "Plane_light_0",
      "primitives": [
        {
          "attributes": {
            "NORMAL": 21,
            "POSITION": 20,
            "TEXCOORD_0": 22
          },
          "indices": 23,
          "material": 5,
          "mode": 4
        }
      ]
    },
    {
      "name": "Plane_rubber_0",
      "primitives": [
        {
          "attributes": {
            "NORMAL": 25,
            "POSITION": 24,
            "TEXCOORD_0": 26
          },
          "indices": 27,
          "material": 6,
          "mode": 4
        }
      ]
    },
    {
      "name": "Plane.003_Material.001_0",
      "primitives": [
        {
          "attributes": {
            "NORMAL": 29,
            "POSITION": 28
          },
          "indices": 30,
          "material": 7,
          "mode": 4
        }
      ]
    },
    {
      "name": "Plane.003_Material.016_0",
      "primitives": [
        {
          "attributes": {
            "NORMAL": 32,
            "POSITION": 31
          },
          "indices": 33,
          "material": 8,
          "mode": 4
        }
      ]
    }
  ],
  "nodes": [
    {
      "children": [
        1
      ],
      "matrix": [
        0.006602904759347439,
        0.0,
        0.0,
        0.0,
        0.0,
        1.466139378646911e-18,
        -0.006602904759347439,
        0.0,
        0.0,
        0.006602904759347439,
        1.466139378646911e-18,
        0.0,
        0.0,
        0.0,
        0.0,
        1.0
      ],
      "name": "Sketchfab_model"
    },
    {
      "children": [
        2
      ],
      "matrix": [
        1.0,
        0.0,
        0.0,
        0.0,
        0.0,
        0.0,
        1.0,
        0.0,
        0.0,
        -1.0,
        0.0,
        0.0,
        0.0,
        0.0,
        0.0,
        1.0
      ],
      "name": "0747c1433c8e4dcc93243010c539ff9c.fbx"
    },
    {
      "children": [
        3,
        11
      ],
      "name": "RootNode"
    },
    {
      "children": [
        4,
        5,
        6,
        7,
        8,
        9,
        10
      ],
      "matrix": [
        100.0,
        0.0,
        0.0,
        0.0,
        0.0,
        99.9999999999999,
        4.371138828673792e-06,
        0.0,
        0.0,
        -4.1355851631844545e-06,
        94.61116027832021,
        0.0,
        -293.9194641113281,
        -0.8646011352539063,
        13.024372100830078,
        1.0
      ],
      "name": "Plane"
    },
    {
      "mesh": 0,
      "name": "Plane_Material.002_0"
    },
    {
      "mesh": 1,
      "name": "Plane_Material.004_0"
    },
    {
      "mesh": 2,
      "name": "Plane_Material.003_0"
    },
    {
      "mesh": 3,
      "name": "Plane_Material.009_0"
    },
    {
      "mesh": 4,
      "name": "Plane_Material.005_0"
    },
    {
      "mesh": 5,
      "name": "Plane_light_0"
    },
    {
      "mesh": 6,
      "name": "Plane_rubber_0"
    },
    {
      "children": [
        12,
        13
      ],
      "matrix": [
        2.9284031008740827,
        8.861113762755189e-16,
        -3.762133331076911,
        0.0,
        1.6444806937857e-07,
        4.767514228820796,
        1.2800456500239443e-07,
        0.0,
        3.762133331076908,
        -2.083946644801425e-07,
        2.9284031008740796,
        0.0,
        79.9800033569336,
        201.0898895263672,
        33.849483489990234,
        1.0
      ],
      "name": "Plane.003"
    },
    {
      "mesh": 7,
      "name": "Plane.003_Material.001_0"
    },
    {
      "mesh": 8,
      "name": "Plane.003_Material.016_0"
    }
  ],
  "scene": 0,
  "scenes": [
    {
      "name": "Sketchfab_Scene",
      "nodes": [
        0
      ]
    }
  ]
}
